<svg width="89" height="40" viewBox="0 0 89 40" fill="none" xmlns="http://www.w3.org/2000/svg">
<path d="M13.9958 29.4677H9.88242V15.1548H4.08749V29.4677H0V0.420967H4.08749V13.1342H9.88242V0.420967H13.9958V29.4677Z" fill="#ECD9CE"/>
<path d="M27.9311 15.7863C29.2591 17.1615 29.9231 18.9856 29.9231 21.2589C29.9231 23.504 29.1988 25.5106 27.75 27.2787C26.3186 29.0187 24.7146 29.8887 22.9382 29.8887C21.1618 29.8887 19.6354 29.159 18.3592 27.6997C17.0829 26.2123 16.4448 24.0934 16.4448 21.3431V20.88H19.7303V21.8061C19.7303 23.6865 20.0493 25.2581 20.6875 26.521C21.3429 27.7558 22.1362 28.3732 23.0675 28.3732C24.0161 28.3732 24.775 27.8961 25.3441 26.9419C25.9305 25.9597 26.2237 24.6126 26.2237 22.9006C26.2237 21.6097 25.6201 20.3608 24.4128 19.154L19.2387 14.0182C17.8073 12.615 17.0915 10.6505 17.0915 8.12468C17.0915 6.07597 17.6779 4.20968 18.8507 2.52581C20.0235 0.841935 21.4722 0 23.1969 0C24.111 0 24.913 0.224517 25.6028 0.67355C26.3099 1.12258 26.836 1.68387 27.1809 2.35742C27.819 3.62032 28.1381 4.67274 28.1381 5.51468V5.76726H27.2585C27.2585 4.81307 26.9308 3.85887 26.2754 2.90468C25.6373 1.95048 24.8526 1.47339 23.9213 1.47339C23.0072 1.47339 22.2224 1.93645 21.5671 2.86258C20.9117 3.78871 20.584 4.98145 20.584 6.44081C20.584 7.31081 20.7651 8.05452 21.1273 8.67194C21.5067 9.28935 22.0155 9.90677 22.6536 10.5242L27.9311 15.7863Z" fill="#ECD9CE"/>
<path d="M36.4764 0.420967V29.4677H32.363V0.420967H36.4764Z" fill="#ECD9CE"/>
<path d="M49.9503 19.9118V9.76645C49.9503 7.66161 49.6054 5.75323 48.9155 4.04129C48.2429 2.32936 47.3547 1.47339 46.2509 1.47339C45.7507 1.47339 45.3282 1.74 44.9832 2.27323C44.6556 2.80645 44.4227 3.50807 44.2848 4.37807C44.0433 5.72516 43.9226 7.11436 43.9226 8.54565V21.1747C43.9226 23.6444 44.1468 25.4685 44.5952 26.6473C45.0609 27.826 45.6645 28.4153 46.4061 28.4153C47.4927 28.4153 48.355 27.5734 48.9931 25.8895C49.6313 24.2056 49.9503 22.2131 49.9503 19.9118ZM54.0896 29.4677H49.9762V24.8371C49.5795 26.521 49.0104 27.7839 48.2688 28.6258C47.5272 29.4677 46.751 29.8887 45.9404 29.8887C44.0778 29.8887 42.5946 28.9485 41.4908 27.0682C40.387 25.1598 39.8351 22.4937 39.8351 19.0698V10.6926C39.8351 7.24065 40.4473 4.60258 41.6719 2.77839C42.8964 0.92613 44.3365 0 45.9922 0C46.958 0 47.7945 0.519194 48.5016 1.55758C49.2087 2.5679 49.7002 3.80274 49.9762 5.2621V0.420967H54.0896V29.4677Z" fill="#ECD9CE"/>
<path d="M71.8278 29.4677H67.6886V8.29306C67.6886 3.74661 66.8952 1.47339 65.3085 1.47339C64.3772 1.47339 63.558 2.31532 62.8509 3.99919C62.1438 5.68306 61.7902 7.66161 61.7902 9.93484V29.4677H57.7027V0.420967H61.7902V5.2621C62.1351 3.60629 62.6612 2.31532 63.3683 1.38919C64.0754 0.463065 64.9119 0 65.8777 0C67.6196 0 69.0425 0.87 70.1463 2.61C71.2673 4.35 71.8278 6.96 71.8278 10.44V29.4677Z" fill="#ECD9CE"/>
<path d="M89 26.1421C89 29.6221 88.6723 32.19 88.0169 33.8458C87.2581 35.7823 86.2405 37.0732 84.9643 37.7187C84.1881 38.1116 83.2913 38.3081 82.2737 38.3081C79.8419 38.3081 77.8327 37.2135 76.246 35.0245L76.7893 33.8037C78.2725 35.684 79.8074 36.6242 81.3942 36.6242C83.8777 36.6242 85.1195 34.0703 85.1195 28.9626V26.6052C84.8608 27.4752 84.4468 28.2469 83.8777 28.9205C83.3258 29.566 82.6359 29.8887 81.8081 29.8887C79.7212 29.8887 78.0483 28.8644 76.7893 26.8156C75.5475 24.7389 74.9266 22.0868 74.9266 18.8594V11.0715C74.9266 7.92823 75.5734 5.30419 76.8669 3.19936C78.1604 1.06645 79.8506 0 81.9374 0C83.5759 0 85.0505 0.757742 86.3612 2.27323C87.672 3.76064 88.3274 5.80935 88.3274 8.41936V9.00871H84.8608L84.8349 7.99839C84.7831 6.03387 84.5158 4.46226 84.0329 3.28355C83.55 2.07677 82.8429 1.47339 81.9116 1.47339C80.9802 1.47339 80.2645 2.07677 79.7643 3.28355C79.2642 4.49032 79.0141 6.06193 79.0141 7.99839V21.8482C79.0141 23.8127 79.2642 25.3984 79.7643 26.6052C80.2645 27.8119 80.9975 28.4153 81.9633 28.4153C82.9291 28.4153 83.6535 27.8119 84.1364 26.6052C84.6366 25.3703 84.8866 23.7847 84.8866 21.8482V20.9642H89V26.1421Z" fill="#ECD9CE"/>
<path d="M1.67703 39.9362C1.49364 39.9362 1.30485 39.9335 1.11067 39.9282C0.921879 39.9229 0.722303 39.9149 0.51194 39.9042V33.7749C0.754667 33.7643 1.00549 33.759 1.26439 33.759C1.5233 33.7537 1.7957 33.751 2.08158 33.751C2.52388 33.751 2.89067 33.8122 3.18194 33.9346C3.47321 34.0569 3.69167 34.2325 3.8373 34.4613C3.98833 34.6848 4.06385 34.9481 4.06385 35.2514C4.06385 35.5121 3.99642 35.7569 3.86158 35.9856C3.73212 36.2091 3.55412 36.3873 3.32758 36.5204C3.10642 36.6534 2.8583 36.7199 2.58321 36.7199V36.6321C2.93921 36.6321 3.24127 36.7013 3.48939 36.8396C3.74291 36.9779 3.93439 37.1615 4.06385 37.3903C4.1933 37.6137 4.25803 37.8585 4.25803 38.1245C4.25803 38.5235 4.16633 38.8587 3.98294 39.1301C3.79955 39.4014 3.51636 39.6036 3.13339 39.7366C2.75042 39.8697 2.26497 39.9362 1.67703 39.9362ZM1.28867 39.3775L1.15921 39.2418C1.31024 39.2578 1.45318 39.2711 1.58803 39.2817C1.72288 39.287 1.84694 39.2897 1.96021 39.2897C2.24609 39.2897 2.5023 39.2551 2.72885 39.186C2.95539 39.1115 3.13339 38.9891 3.26285 38.8188C3.3977 38.6486 3.46512 38.4198 3.46512 38.1325C3.46512 37.8079 3.35455 37.5446 3.13339 37.3424C2.91764 37.1349 2.58052 37.0311 2.12203 37.0311H0.892212V36.4246H2.02494C2.43488 36.4246 2.74503 36.3262 2.95539 36.1293C3.16576 35.9271 3.27094 35.6744 3.27094 35.3711C3.27094 35.0519 3.16576 34.8098 2.95539 34.6449C2.74503 34.4799 2.43758 34.3974 2.03303 34.3974C1.89818 34.3974 1.75524 34.4001 1.60421 34.4054C1.45858 34.4054 1.30755 34.4108 1.15112 34.4214L1.28867 34.2777V39.3775Z" fill="#ECD9CE"/>
<path d="M11.2677 39.9042L13.2095 33.7749H14.2047L16.1141 39.9042H15.2888L14.0348 35.7622C14.0132 35.6717 13.9835 35.5547 13.9458 35.411C13.908 35.262 13.8675 35.1104 13.8244 34.9561C13.7812 34.7965 13.7408 34.6449 13.703 34.5012C13.6707 34.3575 13.641 34.2378 13.614 34.1421H13.7678C13.7408 34.2378 13.7084 34.3602 13.6707 34.5092C13.6329 34.6528 13.5925 34.8045 13.5493 34.9641C13.5062 35.1237 13.463 35.278 13.4198 35.427C13.3821 35.576 13.3497 35.6983 13.3228 35.7941L12.0606 39.9042H11.2677ZM12.3114 38.4597V37.8611H15.0218V38.4597H12.3114Z" fill="#ECD9CE"/>
<path d="M27.8492 39.9601C27.7305 39.9867 27.6199 40 27.5174 40C27.3286 40 27.1722 39.9521 27.0482 39.8563C26.9241 39.7606 26.8135 39.6196 26.7164 39.4334L25.3167 36.8795L25.5513 36.9992H24.2568L24.4024 36.8635V39.9042H23.6257V33.7749H24.4024V36.4964L24.2568 36.3607H25.5594L25.3572 36.4485L26.8944 33.7749H27.6873L25.8831 36.8476L25.9073 36.4645L27.3718 39.1141C27.4365 39.2418 27.504 39.3243 27.5741 39.3615C27.6496 39.3935 27.7305 39.4041 27.8168 39.3935L27.8492 39.9601Z" fill="#ECD9CE"/>
<path d="M35.9836 39.2578H38.516V39.9042H35.3525V33.7749H38.4351V34.4214H35.9836L36.1292 34.2538V36.5363L35.9836 36.4006H38.1681V37.0471H35.9836L36.1292 36.8795V39.4254L35.9836 39.2578Z" fill="#ECD9CE"/>
<path d="M46.4477 39.9042V33.7749C46.685 33.7643 46.9251 33.759 47.1678 33.759C47.4159 33.7537 47.6856 33.751 47.9769 33.751C48.43 33.751 48.8183 33.8095 49.142 33.9266C49.4656 34.0436 49.7137 34.2299 49.8863 34.4852C50.0589 34.7353 50.1452 35.0599 50.1452 35.4589C50.1452 35.8047 50.067 36.1213 49.9106 36.4086C49.7542 36.6959 49.5168 36.9247 49.1986 37.095C48.8804 37.2652 48.4785 37.3504 47.9931 37.3504H46.828V36.7039H47.985C48.4327 36.7039 48.7698 36.6028 48.9963 36.4006C49.2229 36.1931 49.3362 35.9085 49.3362 35.5467C49.3362 35.1636 49.2337 34.8763 49.0287 34.6848C48.8291 34.4932 48.4731 34.3974 47.9607 34.3974C47.8258 34.3974 47.6748 34.4001 47.5076 34.4054C47.3458 34.4107 47.2002 34.4161 47.0707 34.4214L47.2244 34.2777V39.9042H46.4477ZM48.0012 36.9912L48.7536 36.9114L49.8863 39.1461C49.9295 39.2365 49.978 39.303 50.032 39.3456C50.0859 39.3828 50.156 39.4014 50.2423 39.4014C50.2585 39.4014 50.272 39.4014 50.2828 39.4014C50.299 39.4014 50.3152 39.3988 50.3313 39.3935L50.3556 39.9601C50.3071 39.9707 50.2504 39.9787 50.1857 39.984C50.121 39.9947 50.0643 40 50.0158 40C49.827 40 49.6679 39.9521 49.5384 39.8563C49.4144 39.7606 49.3038 39.6196 49.2067 39.4334L48.0012 36.9912Z" fill="#ECD9CE"/>
<path d="M58.9526 39.9042V37.5898L57.0917 33.7749H57.925L58.8798 35.7941C58.9984 36.0388 59.1036 36.2809 59.1953 36.5204C59.287 36.7545 59.3787 36.9886 59.4704 37.2227H59.2519C59.349 36.9779 59.4434 36.7412 59.5351 36.5124C59.6268 36.2836 59.732 36.0468 59.8507 35.8021L60.8135 33.7749H61.6388L59.7293 37.5978V39.9042H58.9526Z" fill="#ECD9CE"/>
</svg>
